# xmcd
#
# Track frame offsets:
#       150
#       16022
#       27672
#       42805
#       55750
#       76315
#       90302
#       100915
#       111755
#       126260
#       139182
#       151807
#       169110
#       183559
#
# Disc length: 2766 seconds
#
# Revision: 1
# Processed by: cddbd v1.5.1PL0 Copyright (c) Steve Scherf et al.
# Submitted via: MusiCat 1.1
#
DISCID=a90acc0e
DTITLE=Passoca - Breve história da música caipira
DYEAR=1900
DGENRE=
TTITLE0=Tristeza do Jeca
TTITLE1=Viola quebrada
TTITLE2=Jorginho do sertão
TTITLE3=Pingo d'água
TTITLE4=Chuá chuá
TTITLE5=Moda da pinga
TTITLE6=Romance de uma caveira
TTITLE7=Boi barnabé
TTITLE8=Índia
TTITLE9=Rio da lágrimas
TTITLE10=Menino da porteira
TTITLE11=Romaria
TTITLE12=Sonora garoa
TTITLE13=Moda de Botucatu
EXTD=\n\n
EXTT0=
EXTT1=
EXTT2=
EXTT3=
EXTT4=
EXTT5=
EXTT6=
EXTT7=
EXTT8=
EXTT9=
EXTT10=
EXTT11=
EXTT12=
EXTT13=
PLAYORDER=
